<svg width="128" height="128" viewBox="0 0 128 128" fill="none" xmlns="http://www.w3.org/2000/svg">
  <g stroke="#111111" stroke-linecap="round" stroke-linejoin="round">
    <path d="M94 30C86 23 75 19 64 19C39 19 19 39 19 64C19 89 39 109 64 109C75 109 86 105 94 98" stroke-width="11"/>
    <path d="M86 44C80 39 73 36 65 36C49 36 36 49 36 65C36 81 49 94 65 94C73 94 80 91 86 86" stroke-width="6" opacity="0.95"/>
    <path d="M92 42L108 30" stroke-width="4" opacity="0.9"/>
    <path d="M92 86L111 97" stroke-width="4" opacity="0.9"/>
    <path d="M30 64L10 64" stroke-width="4" opacity="0.9"/>
  </g>
  <g fill="#111111">
    <circle cx="108" cy="30" r="6"/>
    <circle cx="111" cy="97" r="5"/>
    <circle cx="10" cy="64" r="5"/>
  </g>
</svg>
